<svg xmlns="http://www.w3.org/2000/svg" viewBox="0 0 200 200">
  <path d="M 110.89 4 C 107.92 3.51 101.65 3.18 96.04 4 C 90.43 4.82 83.18 6.8 77.24 8.95 C 71.3 11.09 66.35 13.4 60.41 16.87 C 54.47 20.33 48.54 23.13 41.61 29.73 C 34.68 36.33 24.78 46.56 18.85 56.45 C 12.91 66.35 8.45 81.2 5.98 89.11 C 3.51 97.03 4 97.86 4 103.96 C 4 110.06 4.99 119.79 5.98 125.73 C 6.97 131.67 7.13 133.48 9.94 139.59 C 12.74 145.69 16.54 154.93 22.8 162.35 C 29.07 169.77 38.47 178.68 47.55 184.12 C 56.62 189.57 68.49 193.03 77.24 195.01 C 85.98 196.99 91.09 196.99 100 196 C 108.91 195.01 121.44 192.37 130.68 189.07 C 139.92 185.77 148.16 181.65 155.42 176.21 C 162.68 170.76 171.09 160.54 174.23 156.41 C 177.36 152.29 174.89 152.95 174.23 151.46 C 173.57 149.98 176.21 148.33 170.27 147.51 C 164.33 146.68 147.51 148.16 138.6 146.52 C 129.69 144.87 123.59 141.9 116.82 137.61 C 110.06 133.32 102.64 126.23 98.02 120.78 C 93.4 115.34 91.26 109.9 89.11 104.95 C 86.97 100 85.65 97.86 85.15 91.09 C 84.66 84.33 84 73.94 86.14 64.37 C 88.29 54.8 93.4 42.43 98.02 33.69 C 102.64 24.95 111.22 16.37 113.86 11.92 C 116.49 7.46 114.35 8.29 113.86 6.97 C 113.36 5.65 113.86 4.49 110.89 4 Z" fill="#FCD565"/>
</svg>
